<?xml version="1.0" encoding="utf-8"?>
<!-- Generator: Adobe Illustrator 16.0.0, SVG Export Plug-In . SVG Version: 6.00 Build 0)  -->
<!DOCTYPE svg PUBLIC "-//W3C//DTD SVG 1.1//EN" "http://www.w3.org/Graphics/SVG/1.1/DTD/svg11.dtd">
<svg version="1.1" id="Layer_1" xmlns="http://www.w3.org/2000/svg" xmlns:xlink="http://www.w3.org/1999/xlink" x="0px" y="0px"
	 width="24px" height="24px" viewBox="0 0 24 24" enable-background="new 0 0 24 24" xml:space="preserve">
<path fill="none" d="M0,0h24v24H0V0z"/>
<path fill="#3F423F" d="M1.166,17.205c0,0.99,0.439,1.879,1.125,2.498v2.002c0,0.619,0.507,1.125,1.125,1.125h1.125
	c0.618,0,1.125-0.506,1.125-1.125V20.58h9v1.125c0,0.619,0.508,1.125,1.125,1.125h1.125c0.618,0,1.125-0.506,1.125-1.125v-2.002
	c0.687-0.619,1.125-1.508,1.125-2.498V5.956c0-3.938-4.026-4.5-9-4.5s-9,0.562-9,4.5V17.205z M5.103,18.33
	c-0.934,0-1.688-0.754-1.688-1.688c0-0.935,0.754-1.688,1.688-1.688s1.688,0.754,1.688,1.688C6.791,17.576,6.037,18.33,5.103,18.33z
	 M15.228,18.33c-0.934,0-1.688-0.754-1.688-1.688c0-0.935,0.754-1.688,1.688-1.688s1.688,0.754,1.688,1.688
	C16.915,17.576,16.161,18.33,15.228,18.33z M16.915,11.58h-13.5V5.956h13.5V11.58z"/>
</svg>
