<svg xmlns="http://www.w3.org/2000/svg" xmlns:xlink="http://www.w3.org/1999/xlink" viewBox="0 0 206.84 56.69"><defs><style>.cls-1{fill:url(#linear-gradient);}</style><linearGradient id="linear-gradient" y1="28.35" x2="206.84" y2="28.35" gradientUnits="userSpaceOnUse"><stop offset="0" stop-color="#ef4396"/><stop offset="0.13" stop-color="#db629c"/><stop offset="0.3" stop-color="#c386a2"/><stop offset="0.47" stop-color="#b1a1a7"/><stop offset="0.65" stop-color="#a4b5aa"/><stop offset="0.82" stop-color="#9dc1ac"/><stop offset="1" stop-color="#9ac5ad"/></linearGradient></defs><title>graph2</title><g id="Layer_2" data-name="Layer 2"><g id="Layer_1-2" data-name="Layer 1"><path class="cls-1" d="M183.2,0a3.41,3.41,0,0,0-3.4,3.4V53.29a3.41,3.41,0,0,0,3.4,3.4h20.24a3.41,3.41,0,0,0,3.4-3.4V3.4a3.41,3.41,0,0,0-3.4-3.4ZM153.28,3a3.41,3.41,0,0,0-3.4,3.4V53.29a3.41,3.41,0,0,0,3.4,3.4h20.24a3.41,3.41,0,0,0,3.4-3.4V6.36a3.41,3.41,0,0,0-3.4-3.4Zm-30,.9a3.41,3.41,0,0,0-3.4,3.4v46a3.41,3.41,0,0,0,3.4,3.4h20.24a3.41,3.41,0,0,0,3.4-3.4v-46a3.41,3.41,0,0,0-3.4-3.4ZM93.26.13a3.41,3.41,0,0,0-3.4,3.4V53.29a3.41,3.41,0,0,0,3.4,3.4h20.24a3.41,3.41,0,0,0,3.4-3.4V3.53a3.41,3.41,0,0,0-3.4-3.4ZM63.34,14.69a3.41,3.41,0,0,0-3.4,3.4v35.2a3.41,3.41,0,0,0,3.4,3.4H83.57a3.41,3.41,0,0,0,3.4-3.4V18.09a3.41,3.41,0,0,0-3.4-3.4ZM33.41,16.75a3.41,3.41,0,0,0-3.4,3.4V53.29a3.41,3.41,0,0,0,3.4,3.4H53.65a3.41,3.41,0,0,0,3.4-3.4V20.15a3.41,3.41,0,0,0-3.4-3.4Zm-30,2.36A3.41,3.41,0,0,0,0,22.52V53.08a3.41,3.41,0,0,0,3.4,3.4H23.64a3.41,3.41,0,0,0,3.4-3.4V22.52a3.41,3.41,0,0,0-3.4-3.4Z"/></g></g></svg>