<svg xmlns="http://www.w3.org/2000/svg" viewBox="0 0 155.49 83.74"><defs><style>.cls-1,.cls-2,.cls-3{fill:#3f423f;}.cls-2{opacity:0.7;}.cls-3{opacity:0.5;}</style></defs><title>master</title><g id="Layer_2" data-name="Layer 2"><g id="Layer_1-2" data-name="Layer 1"><path class="cls-1" d="M98.2,39.4c0,21.76-20.45,39.4-20.45,39.4S57.29,61.16,57.29,39.4,77.74,0,77.74,0,98.2,17.64,98.2,39.4Z"/><path class="cls-2" d="M67.86,35.77c14.07,16.6,9.88,43.28,9.88,43.28s-27-.22-41.08-16.82S26.78,19,26.78,19,53.78,19.18,67.86,35.77Z"/><path class="cls-3" d="M42.21,42.9c21.47,3.55,35.53,26.61,35.53,26.61S57,86.81,35.53,83.26,0,56.65,0,56.65,20.74,39.35,42.21,42.9Z"/><path class="cls-2" d="M87.63,35.77c-14.08,16.6-9.89,43.28-9.89,43.28s27-.22,41.08-16.82S128.71,19,128.71,19,101.7,19.18,87.63,35.77Z"/><path class="cls-3" d="M113.28,42.9C91.81,46.46,77.74,69.52,77.74,69.52S98.49,86.81,120,83.26s35.53-26.61,35.53-26.61S134.74,39.35,113.28,42.9Z"/></g></g></svg>