<?xml version="1.0" encoding="utf-8"?>
<!-- Generator: Adobe Illustrator 21.1.0, SVG Export Plug-In . SVG Version: 6.00 Build 0)  -->
<svg version="1.1" id="Layer_1" xmlns="http://www.w3.org/2000/svg" xmlns:xlink="http://www.w3.org/1999/xlink" x="0px" y="0px"
	 viewBox="0 0 145 99.6" style="enable-background:new 0 0 145 99.6;" xml:space="preserve">
<style type="text/css">
	.st0{opacity:0.7;fill:#3F423F;enable-background:new    ;}
	.st1{fill:#3F423F;}
	.st2{fill:#231F20;}
	.st3{fill:#FFFFFF;}
</style>
<title>rat</title>
<g id="Layer_2">
	<g id="Layer_1-2">
		<path class="st0" d="M44.3,86.6c-0.6-0.7-1.1-1.6-2-1.9c-1.4-0.4-2.8-0.4-4.2,0c-1.8,0.4-3.2,1.8-3.7,3.6c-0.2,0.7,0,1.5,0.4,2.1
			c0.6,0.5,1.3,0.9,2,1c1.6,0.6,3.2,1.4,4.7,2.2c7.5,4,15.9,6.5,24.4,5.9c0.4,0,0.8-0.1,1.1-0.4c0.1-0.2,0.1-0.4,0.1-0.6
			c0-1.5-1.3-2.7-2.6-3.5c-3.1-1.7-6.6-2-10.1-2.5c-1.3-0.2-2.5-0.4-3.7-0.9C48.2,90.5,46,88.8,44.3,86.6z"/>
		<path class="st0" d="M57.3,81.5c-0.6-0.6-1.3-1.1-2.1-1.3c-1.2-0.2-2.5,0.1-3.5,0.9c-0.8,0.5-1.4,1.2-1.8,2
			c-0.4,0.9-0.2,1.8,0.3,2.6c0.7,0.6,1.6,1,2.6,1c4.7,0.5,9.6,0.1,14.3,0.8c1.2,0.3,2.4,0.3,3.6-0.1c0.1,0,0.2-0.1,0.2-0.1
			c0.3-0.2,0.3-0.6,0.1-0.9c-0.5-1-1.5-1.7-2.5-1.9c-1.1-0.2-2.1-0.4-3.2-0.4C62.8,83.7,59.4,83.2,57.3,81.5z"/>
		<path class="st0" d="M98.5,83.6c-0.8-0.3-1.5-1.1-2.4-0.4c-0.4,0.4-0.5,0.9-0.3,1.4c0.2,0.5,0.6,0.9,1,1.1c1.7,1,3.7,0.8,5.7,0.8
			c1.1,0,2.3,0.1,3.4,0.2c1.1,0.2,2.2,0.2,3.2,0c0.4-0.1,0.7-0.4,0.7-0.8c0-0.2-0.2-0.4-0.3-0.5c-0.9-0.9-2-1.5-3.3-1.7
			c-1.4-0.1-2.8-0.1-4.2,0.2C100.8,84.2,99.6,84.1,98.5,83.6z"/>
		<path class="st0" d="M98.9,87.5c0,0,0-0.1-0.1-0.1c-0.7-1.1-2.1-1.5-3.2-0.8c-0.2,0.1-0.3,0.2-0.4,0.4c0,0.2,0,0.3,0,0.5
			c0.3,1.7,1,3.4,1.9,4.9c0.4,0.7,0.9,1.3,1.6,1.7c0.8,0.4,1.6,0.5,2.4,0.5c3.2,0.2,6.5,0.2,9.7,0c1-0.1,2.4,0.1,3-0.8
			c1-1.4-1.6-2.6-2.7-2.9c-2.8-0.8-6,0.2-8.8-0.7C100.9,89.9,99.6,88.9,98.9,87.5z"/>
		<path class="st0" d="M9.4,5.9C8.1,4,3.7-1,0.9,0.3c-1.7,0.8,0.1,2.7,0.9,3.3c2.6,2,5.5,5,6.5,8.2c2.2,6.9,1,13.2,1,20.1
			c0,7.3-1,14.7-0.8,22C8.9,61.7,11,69.3,14.9,76c0.9,1.5,6.5,9.5,7.7,4.7c0.3-1.3-0.6-2.5-1.2-3.6c-1.1-2-2.5-4-3.4-6.1
			c-1.6-3.2-2.9-6.5-3.9-9.9c-1.6-5.5-1.7-11-1.3-16.7c0.3-4.5,0.3-9,0.6-13.5c0.3-3.7,0.3-7.3,0.2-11C13.3,14.9,12.3,10,9.4,5.9z"
			/>
		<path class="st1" d="M16.3,64.8c1.4-6.7,4-13.2,7.5-19c2.5-4.1,5.3-6.5,9.6-9c3.3-1.9,6.9-3.5,10.6-4.6c5.1-1.6,10.3-2.7,15.7-1.8
			c5.3,1,10.6,2.4,15.6,4.4c5.8,2.1,11.5,6,17.6,2.2c1.3-0.8,1.7-2.2,2.7-3.2c1.2-1.1,2.5-2,4-2.7c0.9-0.4,1.8-0.8,2.7-1.1l-2.4-3.5
			c-0.5-0.6-0.9-1.4-1.2-2.1c-0.2-0.7-0.2-1.5,0-2.2c0.5-2.5,2.7-4.9,5.3-4.8c1.3,0.1,2.6,0.7,3.6,1.6c1.3,1.2,2.4,2.6,3.2,4.2
			c1.1,1.7,1.6,3.7,1.7,5.8c4.6,0.4,9.2,1.2,13.7,2.3c5.3,1.1,10.6,3.1,15.9,4.2c0.2,0,0.5,0.1,0.7,0.2c0.9,0.4,1.6,1.3,1.8,2.3
			c0.4,2.1,0.3,4.4-0.5,6.4c-0.4,0.8-0.8,1.5-1.4,2.1c-1.9,2.2-4.8,3.6-7.4,4.8c-2.1,1-4.2,1.9-6.3,2.8c-3.1,1.2-6,2.8-8.6,4.9
			c-2.8,2.3-5.5,4.9-7.8,7.7c-2.9,3.3-6.3,6.1-9.2,9.3c-1.2,1.3-3,2.9-3.8,4.4c-1,2,0.3,4.4,1,6.4c0.7,2.1,0.6,5.1-1.7,5.6
			c-0.6,0.1-1.3,0.1-1.8-0.2c-2-0.8-3.2-2.9-4.9-4.2c-2.5-1.7-5.2-3.1-8-4c-6.4-2.4-13.6-2.1-20.4-1.9c-1.3,0-3.1-0.2-4.7-0.1
			c-0.9,0-1.7,0.1-2.6,0.4c-1.7,0.7-2.2,2.6-3.5,3.8c-0.8,0.8-1.9,1.3-3,1.5c-0.6,0.1-1.2,0.2-1.7,0.3c-9.7,1.3-21.2,2.1-28.8-5.2
			l-0.5-0.5C14.6,77.6,15.1,70.7,16.3,64.8z"/>
		<path class="st1" d="M47.6,68.6c4.6,1.7,9,4.9,10.6,9.5c0.4,1.2,0.6,2.5,1,3.8c-0.9,0-1.7,0.1-2.6,0.4c-1.7,0.7-2.2,2.6-3.5,3.8
			c-0.8,0.8-1.9,1.3-3,1.5c0.2-1.7,1.1-3.2,1.4-4.9c0.4-2.6-0.1-5.2-1.4-7.5c-2.2-3.6-6-5.8-9.9-7.2C42.5,67.1,45.2,67.7,47.6,68.6z
			"/>
		<path class="st1" d="M95.7,47.2c-1.7-0.5-3.2-1.4-4.6-2.6c-1.2-1-2.2-2.2-3-3.6c-2.4-4.6-0.6-10.3,4-12.8c3-1.5,6.6-1.4,9.6,0.2
			c3,1.6,6.3,5.6,6.2,9.1c-0.1,3-0.7,5.9-1.8,8.7c-0.6,1.5-0.6,2-2.2,1.7c-1.6-0.2-3.3-0.3-4.9-0.4C97.9,47.7,96.8,47.5,95.7,47.2z"
			/>
		<path class="st0" d="M95.7,46.7c-1.6-0.4-3.1-1.2-4.4-2.3c-1.1-0.9-2.1-2-2.8-3.2c-1.1-1.9-1.3-4.3-0.6-6.4
			c0.8-2.2,2.4-3.9,4.4-4.9c2.9-1.3,6.3-1.3,9.2,0.1c2.9,1.4,6,5,5.9,8.1c-0.1,2.7-0.7,5.3-1.7,7.7c-0.6,1.3-0.5,1.8-2.1,1.5
			c-1.5-0.2-3.2-0.2-4.7-0.3C97.8,47.1,96.8,46.9,95.7,46.7z"/>
		<path class="st1" d="M99.7,36c-0.5,0.9-0.7,2-0.5,3.1c0,0.7,0.2,1.3,0.5,1.8c0.4,0.6,1.2,0.8,1.8,1.2c0.4,0.4,0.8,0.9,0.9,1.4
			c0,0.5,0.1,1,0.3,1.4c0,0,0,0,0,0c0.5,0.5,1.2,0.5,1.8,0.1c0.5-0.5,0.7-1.2,0.5-1.9c-0.2-0.9-0.7-1.7-1.6-2.1
			c-0.5-0.3-1.1-0.4-1.7-0.7c-0.6-0.2-0.9-0.7-0.9-1.3c0.1-0.7,0.7-1.1,1.3-1c0.5-0.1,1.1,0,1.6,0c0.6,0,1.1-0.3,1.3-0.8
			c0.1-0.4,0-0.7-0.2-1.1C104.1,34.2,100.9,34.4,99.7,36z"/>
		<path class="st2" d="M123.2,36.3c1.6,0.1,3,1.2,3.4,2.7c0.7,2.3-2.7,4-4.5,3.1c-0.7-0.4-1.3-1-1.5-1.8c-0.5-1.5,0.3-3.2,1.7-3.9
			C122.6,36.3,122.9,36.3,123.2,36.3z"/>
		<path class="st2" d="M143.7,37.4c0.2-0.2,0.4-0.3,0.7-0.3c0.4,0,0.6,0.5,0.6,0.9c-2.5,0.9,0.1,1.9,0,2.4c-0.1,0.4-0.5,1-0.8,0.5
			c-0.2-0.3-0.5-0.5-0.8-0.6c-0.5-0.1-1,0.1-1.5-0.1c-0.6-0.2-0.9-0.7-0.8-1.3c0-0.2,0.1-0.3,0.2-0.4C141.9,37.7,143,38,143.7,37.4z
			"/>
		<path class="st3" d="M123.2,38.1c-0.1,0.5,0.3,0.9,0.8,1c0.4,0,0.7-0.4,0.8-0.8c0.1-0.5-0.3-0.9-0.8-1
			C123.6,37.4,123.3,37.7,123.2,38.1z"/>
	</g>
</g>
</svg>
