<?xml version="1.0" encoding="utf-8"?>
<!-- Generator: Adobe Illustrator 16.0.0, SVG Export Plug-In . SVG Version: 6.00 Build 0)  -->
<!DOCTYPE svg PUBLIC "-//W3C//DTD SVG 1.1//EN" "http://www.w3.org/Graphics/SVG/1.1/DTD/svg11.dtd">
<svg version="1.1" id="Layer_1" xmlns="http://www.w3.org/2000/svg" xmlns:xlink="http://www.w3.org/1999/xlink" x="0px" y="0px"
	 width="24px" height="24px" viewBox="0 0 24 24" enable-background="new 0 0 24 24" xml:space="preserve">
<path fill="none" d="M0,0h24v24H0V0z"/>
<path fill="#3F423F" d="M13.5,5.333c1.1,0,2-0.9,2-2s-0.9-2-2-2c-1.1,0-2,0.9-2,2S12.4,5.333,13.5,5.333z M9.8,8.733L7,22.834h2.1
	l1.8-8l2.1,2v6h2v-7.5l-2.1-2l0.6-3c1.3,1.5,3.3,2.5,5.5,2.5v-2c-1.9,0-3.5-1-4.3-2.4l-1-1.6c-0.4-0.6-1-1-1.7-1
	c-0.3,0-0.5,0.1-0.8,0.1L6,8.133v4.701h2v-3.4L9.8,8.733"/>
</svg>
